<svg width="1437" height="208" viewBox="0 0 1437 208" fill="none" xmlns="http://www.w3.org/2000/svg">
<path fill-rule="evenodd" clip-rule="evenodd" d="M1437 208L1397.48 201.067C1356.77 194.133 1277.73 180.267 1197.5 173.333C1117.27 166.4 1038.23 166.4 958 169.867C877.768 173.333 798.732 180.267 718.5 176.8C638.268 173.333 559.232 159.467 479 138.667C398.767 117.867 319.733 90.1333 239.5 86.6667C159.267 83.2 80.2325 104 39.5175 114.4L0 124.8V-1.52588e-05H39.5175C80.2325 -1.52588e-05 159.267 -1.52588e-05 239.5 -1.52588e-05C319.733 -1.52588e-05 398.767 -1.52588e-05 479 -1.52588e-05C559.232 -1.52588e-05 638.268 -1.52588e-05 718.5 -1.52588e-05C798.732 -1.52588e-05 877.768 -1.52588e-05 958 -1.52588e-05C1038.23 -1.52588e-05 1117.27 -1.52588e-05 1197.5 -1.52588e-05C1277.73 -1.52588e-05 1356.77 -1.52588e-05 1397.48 -1.52588e-05H1437V208Z" fill="url(#paint0_linear_87_232)"/>
<defs>
<linearGradient id="paint0_linear_87_232" x1="-1.79763e-05" y1="-526.5" x2="1437" y2="208" gradientUnits="userSpaceOnUse">
<stop stop-color="#C1DAEE"/>
<stop offset="1" stop-color="#F7F7F7"/>
</linearGradient>
</defs>
</svg>
